name analog
datacolumns 19
datarows 58
range 0.47150000000000003 0.5
endheader
time	ground_force_vx	ground_force_vy	ground_force_vz	ground_force_px	ground_force_py	ground_force_pz	l_ground_force_vx	l_ground_force_vy	l_ground_force_vz	l_ground_force_px	l_ground_force_py	l_ground_force_pz	ground_torque_x	ground_torque_y	ground_torque_z	l_ground_torque_x	l_ground_torque_y	l_ground_torque_z
0.47150000000000003	-0.0	-0.0	-0.0	-0.0	-0.0	-0.0	7.194307804107666	-20.625288009643555	-503.8601684570313	-0.0	-0.0	-0.0	-0.0	-0.0	-0.0	176739.75	-49529.97265625	2728.96923828125
0.47200000000000003	-0.0	-0.0	-0.0	-0.0	-0.0	-0.0	7.274284362792969	-20.044530868530277	-505.3880920410156	-0.0	-0.0	-0.0	-0.0	-0.0	-0.0	176743.34375	-49322.99609375	2685.431884765625
0.47250000000000003	-0.0	-0.0	-0.0	-0.0	-0.0	-0.0	7.232261657714844	-19.60741424560547	-506.2698364257813	-0.0	-0.0	-0.0	-0.0	-0.0	-0.0	176886.578125	-49150.578125	2612.158935546875
0.47300000000000003	-0.0	-0.0	-0.0	-0.0	-0.0	-0.0	6.919441223144531	-18.88653564453125	-505.7366943359375	-0.0	-0.0	-0.0	-0.0	-0.0	-0.0	177082.796875	-48754.51953125	2537.2001953125
0.47350000000000003	-0.0	-0.0	-0.0	-0.0	-0.0	-0.0	6.648365020751953	-18.84929656982422	-504.1749267578125	-0.0	-0.0	-0.0	-0.0	-0.0	-0.0	176940.453125	-48430.40234375	2434.045166015625
0.47400000000000003	-0.0	-0.0	-0.0	-0.0	-0.0	-0.0	6.804183006286621	-18.765825271606445	-503.4566345214844	-0.0	-0.0	-0.0	-0.0	-0.0	-0.0	176678.828125	-48151.94140625	2352.408935546875
0.47450000000000003	-0.0	-0.0	-0.0	-0.0	-0.0	-0.0	6.345427513122559	-19.16580581665039	-502.2238464355469	-0.0	-0.0	-0.0	-0.0	-0.0	-0.0	176521.65625	-47777.1328125	2269.8154296875
0.47500000000000003	-0.0	-0.0	-0.0	-0.0	-0.0	-0.0	6.282365322113037	-19.279586791992188	-502.3658142089844	-0.0	-0.0	-0.0	-0.0	-0.0	-0.0	176368.8125	-47513.58203125	2360.553955078125
0.47550000000000003	-0.0	-0.0	-0.0	-0.0	-0.0	-0.0	6.819747924804688	-20.12640953063965	-502.9637145996094	-0.0	-0.0	-0.0	-0.0	-0.0	-0.0	176279.9375	-47436.265625	2612.009765625
0.47600000000000003	-0.0	-0.0	-0.0	-0.0	-0.0	-0.0	6.842000961303711	-20.56212043762207	-503.9671020507813	-0.0	-0.0	-0.0	-0.0	-0.0	-0.0	176436.671875	-46993.12890625	2637.8583984375
0.47650000000000003	-0.0	-0.0	-0.0	-0.0	-0.0	-0.0	7.013941764831543	-20.59048080444336	-505.4767150878906	-0.0	-0.0	-0.0	-0.0	-0.0	-0.0	177349.828125	-46928.91796875	2535.065673828125
0.47700000000000004	-0.0	-0.0	-0.0	-0.0	-0.0	-0.0	7.362995147705078	-21.09710502624512	-506.595703125	-0.0	-0.0	-0.0	-0.0	-0.0	-0.0	178162.359375	-47196.43359375	2756.656005859375
0.47750000000000004	-0.0	-0.0	-0.0	-0.0	-0.0	-0.0	7.499095916748047	-20.90318489074707	-510.0866088867188	-0.0	-0.0	-0.0	-0.0	-0.0	-0.0	178906.71875	-47250.22265625	2897.34130859375
0.47800000000000004	-0.0	-0.0	-0.0	-0.0	-0.0	-0.0	7.7652997970581055	-20.531700134277344	-512.1809692382812	-0.0	-0.0	-0.0	-0.0	-0.0	-0.0	179583.15625	-47185.08984375	2852.2099609375
0.47850000000000004	-0.0	-0.0	-0.0	-0.0	-0.0	-0.0	7.812886714935303	-20.443315505981445	-511.2951354980469	-0.0	-0.0	-0.0	-0.0	-0.0	-0.0	179613.046875	-47081.1640625	2950.876220703125
0.47900000000000004	-0.0	-0.0	-0.0	-0.0	-0.0	-0.0	7.81304121017456	-20.843917846679688	-509.73583984375	-0.0	-0.0	-0.0	-0.0	-0.0	-0.0	179325.0625	-46867.30859375	2957.26123046875
0.47950000000000004	-0.0	-0.0	-0.0	-0.0	-0.0	-0.0	7.793314933776855	-20.43658828735352	-508.5523681640625	-0.0	-0.0	-0.0	-0.0	-0.0	-0.0	178823.65625	-46519.45703125	2984.90673828125
0.48	-0.0	-0.0	-0.0	-0.0	-0.0	-0.0	7.963687419891357	-20.64707946777344	-507.1826477050781	-0.0	-0.0	-0.0	-0.0	-0.0	-0.0	178230.3125	-46295.1953125	3069.51708984375
0.4805	-0.0	-0.0	-0.0	-0.0	-0.0	-0.0	8.031784057617188	-20.44302749633789	-505.4378051757813	-0.0	-0.0	-0.0	-0.0	-0.0	-0.0	177689.65625	-45916.17578125	3188.24755859375
0.481	-0.0	-0.0	-0.0	-0.0	-0.0	-0.0	8.5570707321167	-20.26632308959961	-503.8258056640625	-0.0	-0.0	-0.0	-0.0	-0.0	-0.0	176982.953125	-45582.98828125	3355.32861328125
0.4815	-0.0	-0.0	-0.0	-0.0	-0.0	-0.0	9.321826934814451	-19.750640869140625	-502.13665771484375	-0.0	-0.0	-0.0	-0.0	-0.0	-0.0	176562.40625	-45482.859375	3440.236083984375
0.482	-0.0	-0.0	-0.0	-0.0	-0.0	-0.0	9.79153537750244	-19.16580581665039	-501.7597351074219	-0.0	-0.0	-0.0	-0.0	-0.0	-0.0	175990.8125	-45328.296875	3600.142578125
0.4825	-0.0	-0.0	-0.0	-0.0	-0.0	-0.0	10.153654098510742	-19.110502243041992	-499.0975646972656	-0.0	-0.0	-0.0	-0.0	-0.0	-0.0	175523.609375	-45093.31640625	3817.938720703125
0.483	-0.0	-0.0	-0.0	-0.0	-0.0	-0.0	10.475488662719728	-18.9184627532959	-498.4588928222656	-0.0	-0.0	-0.0	-0.0	-0.0	-0.0	174929.53125	-44927.7578125	3991.184814453125
0.4835	-0.0	-0.0	-0.0	-0.0	-0.0	-0.0	11.137073516845703	-18.24998664855957	-496.0765075683594	-0.0	-0.0	-0.0	-0.0	-0.0	-0.0	174260.875	-44748.84765625	4185.9150390625
0.484	-0.0	-0.0	-0.0	-0.0	-0.0	-0.0	11.26626968383789	-18.15403175354004	-493.5103149414063	-0.0	-0.0	-0.0	-0.0	-0.0	-0.0	173689.671875	-44609.84765625	4353.4697265625
0.4845	-0.0	-0.0	-0.0	-0.0	-0.0	-0.0	11.750160217285156	-17.840980529785156	-492.8117065429688	-0.0	-0.0	-0.0	-0.0	-0.0	-0.0	172963.5625	-44186.94921875	4523.55908203125
0.485	-0.0	-0.0	-0.0	-0.0	-0.0	-0.0	12.056503295898438	-17.592269897460938	-489.891845703125	-0.0	-0.0	-0.0	-0.0	-0.0	-0.0	172083.65625	-44086.08984375	4734.15576171875
0.4855	-0.0	-0.0	-0.0	-0.0	-0.0	-0.0	12.064666748046877	-17.89756202697754	-486.7173461914063	-0.0	-0.0	-0.0	-0.0	-0.0	-0.0	171197.9375	-43890.97265625	4809.60888671875
0.486	-0.0	-0.0	-0.0	-0.0	-0.0	-0.0	12.27375316619873	-17.52764320373535	-485.7365112304688	-0.0	-0.0	-0.0	-0.0	-0.0	-0.0	170276.109375	-43514.078125	4882.59716796875
0.4865	-0.0	-0.0	-0.0	-0.0	-0.0	-0.0	12.296459197998049	-17.655790328979492	-481.9869079589844	-0.0	-0.0	-0.0	-0.0	-0.0	-0.0	169464.765625	-43556.76953125	5014.61279296875
0.487	-0.0	-0.0	-0.0	-0.0	-0.0	-0.0	12.104652404785156	-17.849681854248047	-480.7473754882813	-0.0	-0.0	-0.0	-0.0	-0.0	-0.0	168725.15625	-43224.44140625	5103.3671875
0.4875	-0.0	-0.0	-0.0	-0.0	-0.0	-0.0	12.064666748046877	-17.54509162902832	-477.67431640625	-0.0	-0.0	-0.0	-0.0	-0.0	-0.0	168141.828125	-43047.2265625	5141.9306640625
0.488	-0.0	-0.0	-0.0	-0.0	-0.0	-0.0	11.771512031555176	-17.55807876586914	-476.3136901855469	-0.0	-0.0	-0.0	-0.0	-0.0	-0.0	167336.09375	-42871.59375	5267.77294921875
0.4885	-0.0	-0.0	-0.0	-0.0	-0.0	-0.0	11.789372444152832	-17.624736785888672	-473.7266540527344	-0.0	-0.0	-0.0	-0.0	-0.0	-0.0	166258.765625	-42507.90625	5125.55029296875
0.489	-0.0	-0.0	-0.0	18.9398250579834	-2.3264479637146	-22.53173446655273	11.581400871276855	-17.9595947265625	-468.21234130859375	-0.0	-0.0	-0.0	-0.0	-0.0	-0.0	165303.859375	-42183.953125	5135.5537109375
0.4895	-0.0	-0.0	-0.0	11.72346019744873	-1.4445114135742188	-25.428955078125	11.06996726989746	-17.840980529785156	-464.8768005371094	-0.0	-0.0	-0.0	-0.0	-0.0	-0.0	163630.859375	-41793.6953125	5056.3251953125
0.49	-0.0	-0.0	-0.0	3.021331787109375	-0.504253089427948	-33.040863037109375	10.822715759277344	-17.673879623413086	-460.3375549316406	-0.0	-0.0	-0.0	-0.0	-0.0	-0.0	161961.0	-41175.71484375	5003.20166015625
0.4905	-0.0	-0.0	-0.0	-3.5987887382507324	1.0809404850006104	-43.328407287597656	10.635584831237791	-17.645004272460938	-456.45843505859375	-0.0	-0.0	-0.0	-0.0	-0.0	-0.0	161098.453125	-40869.5625	4963.470703125
0.491	-0.0	-0.0	-0.0	-8.157938957214355	2.248731136322021	-56.78559112548828	10.497432708740234	-17.252159118652344	-453.741943359375	-0.0	-0.0	-0.0	-0.0	-0.0	-0.0	159578.484375	-40399.73046875	4927.314453125
0.4915	-0.0	-0.0	-0.0	-13.589945793151855	3.585374593734741	-65.73265838623047	10.093052864074709	-16.90863037109375	-449.9778442382813	-0.0	-0.0	-0.0	-0.0	-0.0	-0.0	158559.453125	-40093.23046875	4864.4462890625
0.492	-0.0	-0.0	-0.0	-16.75176239013672	4.159424781799316	-73.06898498535156	10.073740005493164	-16.957763671875	-446.6796875	-0.0	-0.0	-0.0	-0.0	-0.0	-0.0	156975.65625	-39656.1484375	4976.666015625
0.4925	-0.0	-0.0	-0.0	-14.581599235534668	4.694439888000488	-78.5625991821289	10.222312927246094	-16.78112030029297	-442.4155883789063	-0.0	-0.0	-0.0	-0.0	-0.0	-0.0	155840.875	-39209.5546875	4936.91064453125
0.493	-0.0	-0.0	-0.0	-11.320819854736328	5.426766395568848	-86.40797424316406	10.105114936828612	-16.801851272583008	-437.8771362304688	-0.0	-0.0	-0.0	-0.0	-0.0	-0.0	153967.296875	-38873.47265625	4864.33984375
0.4935	-0.0	-0.0	-0.0	-8.862897872924805	6.187412738800049	-93.8638916015625	9.737054824829102	-17.12388801574707	-432.7110595703125	-0.0	-0.0	-0.0	-0.0	-0.0	-0.0	152214.625	-38168.5	4871.01123046875
0.494	-0.0	-0.0	-0.0	-7.433331489562988	6.752934455871582	-100.57316589355467	9.64118480682373	-17.448863983154297	-426.9010925292969	-0.0	-0.0	-0.0	-0.0	-0.0	-0.0	150364.234375	-37403.0859375	4926.6552734375
0.4945	-0.0	-0.0	-0.0	-6.769375801086426	7.940023422241211	-108.65325164794922	9.321064949035645	-17.907726287841797	-421.4513244628906	-0.0	-0.0	-0.0	-0.0	-0.0	-0.0	148334.34375	-36782.27734375	4870.60595703125
0.495	-0.0	-0.0	-0.0	-6.819214820861816	9.465466499328612	-115.0240707397461	8.737613677978516	-18.12782859802246	-416.188720703125	-0.0	-0.0	-0.0	-0.0	-0.0	-0.0	146412.265625	-36143.29296875	4794.189453125
0.4955	-0.0	-0.0	-0.0	-7.404472351074219	10.86746883392334	-125.60256958007812	8.627171516418457	-18.282588958740234	-408.9877624511719	-0.0	-0.0	-0.0	-0.0	-0.0	-0.0	144369.265625	-35285.890625	4870.1103515625
0.496	-0.0	-0.0	-0.0	-6.751964569091797	11.542802810668944	-139.46234130859375	8.195162773132324	-18.762754440307617	-404.9520568847656	-0.0	-0.0	-0.0	-0.0	-0.0	-0.0	141801.625	-34445.6484375	4760.25927734375
0.4965	-0.0	-0.0	-0.0	-5.1630072593688965	13.592182159423828	-150.7634735107422	7.490355968475342	-19.36517143249512	-397.9879455566406	-0.0	-0.0	-0.0	-0.0	-0.0	-0.0	139619.25	-33737.7890625	4504.0498046875
0.497	-0.0	-0.0	-0.0	-4.789754390716553	15.586502075195312	-166.85508728027344	6.653308868408203	-19.53810310363769	-389.1976013183594	-0.0	-0.0	-0.0	-0.0	-0.0	-0.0	136738.21875	-32724.28125	4234.01171875
0.4975	-0.0	-0.0	-0.0	-4.739640235900879	18.03169631958008	-177.2053985595703	5.843221187591553	-19.292469024658203	-381.0164489746094	-0.0	-0.0	-0.0	-0.0	-0.0	-0.0	134104.421875	-31665.9296875	4130.37548828125
0.498	-0.0	-0.0	-0.0	-4.231685161590576	20.488374710083008	-188.2143402099609	4.955969333648682	-19.12753677368164	-373.1499328613281	-0.0	-0.0	-0.0	-0.0	-0.0	-0.0	131185.421875	-30702.908203125	3842.137939453125
0.4985	-0.0	-0.0	-0.0	-4.266880512237549	22.33303642272949	-197.3947906494141	4.713629722595215	-19.342449188232425	-364.8634643554688	-0.0	-0.0	-0.0	-0.0	-0.0	-0.0	128155.03125	-29339.681640625	3549.290283203125
0.499	-0.0	-0.0	-0.0	-4.204801559448242	24.626710891723636	-203.23147583007807	4.155332565307617	-18.7000789642334	-354.9364624023437	-0.0	-0.0	-0.0	-0.0	-0.0	-0.0	124917.109375	-28258.5234375	3282.1572265625
0.4995	-0.0	-0.0	-0.0	-4.716124057769775	26.703054428100582	-209.23529052734372	3.458193778991699	-17.90341567993164	-345.3591003417969	-0.0	-0.0	-0.0	-0.0	-0.0	-0.0	121801.1328125	-27194.39453125	3027.73583984375
0.5	-0.0	-0.0	-0.0	-4.626769065856934	28.40826416015625	-212.51004028320312	2.686084985733032	-17.28537940979004	-335.2829895019531	-0.0	-0.0	-0.0	-0.0	-0.0	-0.0	117969.390625	-25719.2421875	2654.521240234375
